<?xml version="1.0" encoding="utf-8"?>
<!-- Generator: Adobe Illustrator 23.0.6, SVG Export Plug-In . SVG Version: 6.00 Build 0)  -->
<svg version="1.1" id="Layer_1" xmlns="http://www.w3.org/2000/svg" xmlns:xlink="http://www.w3.org/1999/xlink" x="0px" y="0px" viewBox="0 0 188.7 125.4" style="enable-background:new 0 0 188.7 125.4;" xml:space="preserve">
  <style type="text/css">
	.st0{fill:#F6B728;}
	.st1{fill:none;stroke:#F6B728;stroke-width:0.375;stroke-linecap:round;stroke-linejoin:round;stroke-miterlimit:10;}
	.st2{fill:#FBD794;}
	.st3{fill:none;stroke:#FBD794;stroke-width:0.375;stroke-linecap:round;stroke-linejoin:round;stroke-miterlimit:10;}
	.st4{fill:#FFFFFF;}
</style>
  <path class="st0" d="M174,38.4h11.7c-1.1-2-2.3-3.9-3.5-5.7h-12.5C171.2,34.5,172.6,36.4,174,38.4" />
  <path class="st1" d="M174,38.4h11.7c-1.1-2-2.3-3.9-3.5-5.7h-12.5C171.2,34.5,172.6,36.4,174,38.4z" />
  <path class="st0" d="M66.8,47.5c1.5-4.3,3.5-8.3,5.8-12.1H61.2c-2,3.9-3.6,7.9-4.9,12.1c0,0,3.2-0.7,7.8-5.3
	C64.1,42.2,66.2,44.4,66.8,47.5" />
  <path class="st1" d="M66.8,47.5c1.5-4.3,3.5-8.3,5.8-12.1H61.2c-2,3.9-3.6,7.9-4.9,12.1c0,0,3.2-0.7,7.8-5.3
	C64.1,42.2,66.2,44.4,66.8,47.5z" />
  <polyline class="st2" points="67.7,38.4 72.7,35.4 61.2,35.4 59.8,38.4 67.7,38.4 " />
  <polygon class="st3" points="67.7,38.4 72.7,35.4 61.2,35.4 59.8,38.4 " />
  <path class="st0" d="M174.8,47.5c-1.5-4.3-3.5-8.3-5.8-12.1h11.4c2,3.9,3.6,7.9,4.9,12.1c0,0-3.2-0.7-7.8-5.3
	C177.5,42.2,175.4,44.4,174.8,47.5" />
  <path class="st1" d="M174.8,47.5c-1.5-4.3-3.5-8.3-5.8-12.1h11.4c2,3.9,3.6,7.9,4.9,12.1c0,0-3.2-0.7-7.8-5.3
	C177.5,42.2,175.4,44.4,174.8,47.5z" />
  <polyline class="st2" points="173.9,38.4 168.9,35.4 180.3,35.4 181.8,38.4 173.9,38.4 " />
  <polygon class="st3" points="173.9,38.4 168.9,35.4 180.3,35.4 181.8,38.4 " />
  <path class="st0" d="M120.8,0.2C93,0.2,68.7,15.6,56.1,38.4h11.7c11.5-17,31-28.3,53.1-28.3c22.1,0,41.6,11.2,53.1,28.3h11.7
	C173,15.6,148.7,0.2,120.8,0.2" />
  <path class="st1" d="M120.8,0.2C93,0.2,68.7,15.6,56.1,38.4h11.7c11.5-17,31-28.3,53.1-28.3c22.1,0,41.6,11.2,53.1,28.3h11.7
	C173,15.6,148.7,0.2,120.8,0.2" />
  <path class="st4" d="M73.1,26.5c-0.2,0.2-0.2,0.2-0.1,0.3l0.5,1c0.1,0.2,0.1,0.2,0.2,0.3c0,0,0.2,0,0.4-0.2l0.2-0.2
	c0.1,0,0.3,0.1,0.2,0.2c-0.2,0.2-0.5,0.5-0.8,0.7c-0.2,0.2-0.4,0.4-0.6,0.7c-0.1,0-0.2-0.1-0.3-0.2l0.2-0.2c0.1-0.2,0.2-0.4,0.1-0.7
	c-0.2-0.4-0.3-0.8-0.6-1.5l-1-2.2c-0.3-0.6-0.4-0.9-0.6-1.1c0.2-0.4,0.2-0.9,0.2-1c0.1-0.1,0.2-0.1,0.3,0c0.2,0.1,0.6,0.3,1.2,0.6
	l3.5,1.6c0.5,0.3,0.7,0.3,1,0.1l0.3-0.2c0.1,0,0.2,0.1,0.2,0.2c-0.3,0.3-0.7,0.7-1,1c-0.3,0.3-0.6,0.6-0.9,0.9
	c-0.1,0-0.3-0.1-0.2-0.2l0.2-0.2c0.1-0.2,0.1-0.3,0.1-0.3c0,0-0.2-0.2-0.6-0.3l-0.7-0.4c-0.1-0.1-0.2,0-0.4,0.2L73.1,26.5
	 M73.5,25.4c0.1-0.2,0.2-0.2-0.1-0.3l-0.7-0.4c-0.4-0.2-0.8-0.4-1-0.5c0.1,0.2,0.3,0.7,0.5,1.1l0.3,0.6c0.1,0.2,0.2,0.2,0.3,0.1
	L73.5,25.4z" />
  <path class="st4" d="M75.5,20.6c-0.6-0.7-0.7-0.8-1-0.6l-0.1,0.1c-0.1,0-0.3-0.2-0.2-0.3c0.6-0.5,1.1-1,1.9-1.6
	c0.6-0.5,1.2-0.9,1.9-1.1c1.2-0.4,2.4,0,3.1,0.9c0.8,1,1,2.1,0.5,3.2c-0.3,0.6-0.8,1.2-1.5,1.8c-0.3,0.3-0.7,0.5-1,0.7
	c-0.3,0.3-0.7,0.6-1.1,0.9c-0.1,0-0.2-0.2-0.2-0.3l0.2-0.2c0.3-0.3,0.3-0.4-0.3-1.1L75.5,20.6 M78.4,22.1c0.3,0.4,0.5,0.6,0.8,0.7
	c0.2,0,0.5-0.1,0.8-0.3c1.2-1,0.8-2.5,0-3.4c-1.1-1.3-2.4-1.5-3.7-0.4C76.1,18.7,76,18.9,76,19c0,0.1,0.1,0.2,0.3,0.5L78.4,22.1z" />
  <path class="st4" d="M86.5,15.7c-0.2,0.1-0.2,0.1-0.2,0.3l0.2,1.1c0,0.2,0.1,0.3,0.1,0.3c0,0,0.2,0,0.4-0.1l0.3-0.1
	c0.1,0,0.2,0.2,0.1,0.3c-0.3,0.1-0.6,0.3-0.9,0.5c-0.3,0.2-0.4,0.3-0.8,0.5c-0.1,0-0.2-0.2-0.2-0.3l0.2-0.2c0.2-0.1,0.3-0.3,0.3-0.7
	c-0.1-0.4-0.1-0.9-0.3-1.6l-0.4-2.4c-0.1-0.6-0.1-1-0.3-1.2c0.3-0.3,0.4-0.9,0.4-0.9c0.1-0.1,0.2,0,0.3,0.1c0.2,0.2,0.5,0.4,1,0.9
	l2.9,2.5c0.4,0.4,0.6,0.5,1,0.4l0.3-0.1c0.1,0,0.2,0.2,0.2,0.3c-0.4,0.2-0.8,0.5-1.2,0.7c-0.4,0.2-0.7,0.4-1.1,0.7
	c-0.1,0-0.2-0.2-0.2-0.3l0.2-0.2C89,16.2,89,16.1,89,16c0-0.1-0.2-0.2-0.5-0.5L87.9,15c-0.1-0.1-0.2-0.1-0.5,0.1L86.5,15.7
	 M87.2,14.7c0.2-0.1,0.2-0.2,0-0.3l-0.6-0.5c-0.3-0.3-0.7-0.6-0.9-0.7c0,0.2,0.1,0.7,0.2,1.2l0.2,0.7c0.1,0.3,0.1,0.3,0.3,0.1
	L87.2,14.7z" />
  <path class="st4" d="M93.3,14.6c-0.8,0.4-1.3,0.4-1.6,0.4c-0.2-0.1-0.6-0.7-0.9-1.2c0-0.1,0.2-0.2,0.3-0.2c0.4,0.5,1.3,1,2.1,0.6
	c0.6-0.3,0.7-0.9,0.5-1.3c-0.3-0.7-1.1-0.8-1.8-0.8c-0.7,0-1.6-0.2-2-1c-0.5-0.9,0-1.9,1.2-2.5c0.3-0.1,0.6-0.3,1-0.3
	c0.1,0,0.2,0,0.3-0.1c0.2,0.2,0.5,0.6,0.7,1.1c0,0.1-0.2,0.2-0.3,0.2c-0.3-0.4-1-0.8-1.6-0.5c-0.5,0.3-0.7,0.8-0.5,1.2
	c0.2,0.4,0.7,0.6,1.2,0.6l0.7,0c0.6,0,1.5,0.2,2,1.1C95.1,12.9,94.5,14,93.3,14.6" />
  <path class="st4" d="M96.3,7.2C96.2,7,96.2,7,96,7l-0.5,0.2c-0.6,0.2-0.7,0.6-0.7,1.4c-0.1,0.1-0.3,0.1-0.3,0c0-0.7-0.2-1.2-0.3-1.6
	c0,0,0.1-0.1,0.1-0.1c0,0,0.1,0,0.1,0c0.1,0.1,0.1,0.2,0.8-0.1l3.2-1.2c0.6-0.2,0.7-0.3,0.7-0.5c0,0,0.1,0,0.1-0.1
	c0.1,0,0.1,0,0.2,0c0,0.3,0.2,1.1,0.4,1.5c0,0.1-0.2,0.2-0.3,0.1c-0.4-0.5-0.6-0.9-1.3-0.6l-0.5,0.2c-0.2,0.1-0.2,0.1-0.1,0.3
	l1.4,3.8c0.3,0.8,0.4,0.9,0.8,0.8l0.4-0.1c0.1,0,0.2,0.2,0.1,0.3c-0.6,0.2-1,0.3-1.4,0.5c-0.4,0.2-0.9,0.3-1.5,0.6
	c-0.1,0-0.2-0.2-0.1-0.3l0.4-0.2c0.4-0.2,0.4-0.3,0.1-1.1L96.3,7.2" />
  <path class="st4" d="M101.8,6.2c-0.2-0.9-0.3-1-0.7-0.9l-0.3,0c-0.1,0-0.2-0.2-0.1-0.3c0.7-0.2,1.3-0.4,2.2-0.7
	c0.8-0.2,1.4-0.2,1.8-0.1c0.6,0.2,1,0.5,1.1,1.1c0.2,0.8-0.2,1.3-0.6,1.6c-0.1,0.1-0.1,0.1,0,0.2c0.9,1,1.4,1.6,2,1.9
	c0.3,0.1,0.5,0.1,0.7,0.1c0.1,0,0.1,0.2,0.1,0.2c-0.1,0.1-0.4,0.2-0.7,0.3c-0.8,0.2-1.4,0.1-2-0.5c-0.4-0.4-0.7-0.8-1.1-1.2
	c-0.2-0.2-0.3-0.2-0.6-0.2c-0.3,0.1-0.3,0.1-0.3,0.3l0.3,1.1c0.2,0.8,0.3,0.9,0.7,0.8l0.3,0c0.1,0,0.1,0.2,0.1,0.3
	c-0.5,0.1-0.9,0.2-1.3,0.3c-0.4,0.1-0.8,0.2-1.3,0.4c-0.1,0-0.1-0.3-0.1-0.3l0.2-0.1c0.4-0.2,0.4-0.3,0.2-1.1L101.8,6.2 M103.4,7
	c0.1,0.3,0.1,0.3,0.6,0.2c0.3-0.1,0.5-0.2,0.6-0.4c0.1-0.2,0.2-0.5,0.1-1.1c-0.2-0.8-0.8-1.2-1.5-1c-0.4,0.1-0.4,0.1-0.3,0.6
	L103.4,7z" />
  <path class="st4" d="M110.3,6.9c-0.2,0-0.2,0-0.3,0.2l-0.2,1.1c0,0.2,0,0.3,0,0.3c0,0.1,0.1,0.1,0.4,0.1l0.3,0
	c0.1,0.1,0.1,0.3,0,0.3c-0.3,0-0.7,0.1-1,0.1c-0.3,0-0.5,0.1-0.9,0.2c-0.1,0-0.1-0.2-0.1-0.3l0.2-0.1c0.2-0.1,0.4-0.2,0.5-0.5
	c0.1-0.4,0.2-0.9,0.4-1.6l0.5-2.4c0.1-0.6,0.2-1,0.2-1.2c0.4-0.2,0.7-0.7,0.7-0.7c0.1,0,0.2,0,0.2,0.2c0.1,0.3,0.3,0.6,0.6,1.2
	l1.8,3.4c0.3,0.5,0.4,0.7,0.7,0.7l0.4,0c0.1,0,0.1,0.3,0,0.3c-0.4,0-0.9,0.1-1.4,0.2c-0.5,0.1-0.8,0.1-1.2,0.2
	c-0.1,0-0.2-0.2-0.1-0.3l0.3-0.1c0.2-0.1,0.2-0.1,0.2-0.2c0-0.1-0.1-0.3-0.3-0.6l-0.4-0.8c-0.1-0.1-0.1-0.1-0.5-0.1L110.3,6.9
	 M111.2,6.3c0.2,0,0.3-0.1,0.1-0.3L111,5.3c-0.2-0.4-0.4-0.8-0.5-1c0,0.2-0.2,0.7-0.2,1.2l-0.1,0.7c0,0.3,0,0.3,0.2,0.2L111.2,6.3z" />
  <path class="st4" d="M118.6,3.6c0-0.9,0-1-0.4-1.1l-0.3,0c-0.1,0-0.1-0.2,0-0.3c0.6-0.1,1.3-0.1,2.1-0.1c0.8,0,1.3,0.1,1.7,0.2
	c0.6,0.2,1.1,0.7,1.1,1.6c0,1.5-1.5,1.8-2,1.8c-0.1,0-0.2,0-0.3,0c-0.1,0-0.1-0.2,0-0.3c0.8-0.2,0.9-0.8,0.9-1.5
	c0-0.7-0.4-1.4-1.2-1.4c-0.3,0-0.4,0.1-0.4,0.5l0,3.9c0,0.9,0.1,0.9,0.5,1l0.3,0c0.1,0,0.1,0.3,0,0.3c-0.5,0-1,0-1.4,0
	c-0.4,0-0.9,0-1.4,0c-0.1-0.1-0.1-0.3,0-0.3l0.3,0c0.4-0.1,0.5-0.1,0.5-1L118.6,3.6" />
  <path class="st4" d="M126.1,4.6c0,0.3,0,0.3,0.2,0.3L127,5c0.5,0,0.6,0,0.7-0.5l0.1-0.2c0.1-0.1,0.3,0,0.3,0c0,0.3-0.1,0.6-0.1,1
	c0,0.4,0,0.7-0.1,1c-0.1,0.1-0.3,0.1-0.3,0l0-0.2c-0.1-0.5-0.2-0.5-0.6-0.6l-0.6-0.1c-0.2,0-0.3,0-0.3,0.3L126,6.8
	c0,0.4,0,0.7,0.1,0.9c0.1,0.2,0.3,0.3,0.9,0.3c0.8,0.1,1.1,0.1,1.7-0.9c0.1-0.1,0.3,0,0.3,0.1c-0.1,0.5-0.4,1.2-0.5,1.4
	c-0.5-0.1-1.4-0.1-2.1-0.2l-1.2-0.1c-0.4,0-0.9-0.1-1.6-0.1c-0.1-0.1-0.1-0.3,0-0.3l0.4,0c0.4,0,0.5-0.1,0.5-0.9l0.3-3.4
	c0.1-0.8,0-0.9-0.4-1l-0.2-0.1c-0.1-0.1-0.1-0.3,0-0.3c0.4,0.1,0.9,0.1,1.3,0.1l2,0.2c0.6,0,1.1,0.1,1.2,0.1c0,0.1,0,0.8,0,1.4
	c0,0.1-0.3,0.1-0.3,0c-0.1-0.3-0.2-0.6-0.3-0.8c-0.2-0.2-0.4-0.3-0.9-0.4l-0.7-0.1c-0.3,0-0.3,0-0.3,0.3L126.1,4.6" />
  <path class="st4" d="M131.2,4.3c0.2-0.9,0.2-1-0.2-1.1L130.8,3c-0.1-0.1,0-0.3,0.1-0.3c0.7,0.1,1.4,0.2,2.3,0.3
	c0.8,0.1,1.4,0.4,1.7,0.7c0.5,0.4,0.7,0.9,0.6,1.5c-0.1,0.8-0.8,1.1-1.2,1.2c-0.1,0-0.1,0.1-0.1,0.2c0.4,1.3,0.6,2.1,1,2.5
	c0.2,0.2,0.4,0.3,0.6,0.4c0.1,0.1,0,0.2,0,0.2c-0.2,0-0.5,0-0.7,0c-0.8-0.2-1.3-0.5-1.6-1.3c-0.2-0.5-0.3-1-0.5-1.5
	c-0.1-0.3-0.2-0.4-0.4-0.4c-0.3-0.1-0.3,0-0.4,0.1l-0.2,1.1c-0.2,0.8-0.1,0.9,0.3,1.1l0.2,0.1c0.1,0.1,0,0.3-0.1,0.3
	c-0.5-0.1-0.9-0.2-1.3-0.3c-0.5-0.1-0.9-0.1-1.3-0.2c-0.1-0.1,0-0.3,0.1-0.3l0.3,0c0.4,0,0.5-0.1,0.6-0.9L131.2,4.3 M132.3,5.6
	c-0.1,0.3,0,0.4,0.5,0.4c0.3,0.1,0.5,0,0.7-0.1c0.2-0.1,0.4-0.4,0.5-0.9c0.1-0.8-0.2-1.4-0.9-1.6c-0.4-0.1-0.4,0-0.5,0.4L132.3,5.6z
	" />
  <path class="st4" d="M141,9.1c-0.2-0.1-0.2-0.1-0.3,0.1l-0.7,0.9c-0.1,0.2-0.1,0.2-0.2,0.3c0,0.1,0.1,0.1,0.3,0.3l0.2,0.1
	c0,0.1,0,0.3-0.1,0.3c-0.3-0.1-0.6-0.2-1-0.4c-0.3-0.1-0.5-0.1-0.9-0.3c-0.1-0.1,0-0.3,0.1-0.3l0.2,0.1c0.2,0,0.4,0,0.7-0.3
	c0.3-0.3,0.6-0.7,1-1.2l1.5-1.9c0.4-0.5,0.6-0.7,0.7-1c0.5,0,0.9-0.3,0.9-0.3c0.1,0,0.2,0.1,0.1,0.2c0,0.3,0,0.6,0,1.3l0,3.8
	c0,0.6,0,0.8,0.3,1l0.3,0.2c0,0.1,0,0.3-0.1,0.3c-0.4-0.2-0.9-0.3-1.3-0.5c-0.4-0.1-0.8-0.3-1.2-0.4c-0.1-0.1,0-0.3,0.1-0.3l0.3,0.1
	c0.2,0,0.3,0,0.3-0.1c0-0.1,0-0.3,0-0.7l0-0.8c0-0.2-0.1-0.2-0.4-0.3L141,9.1 M142.1,9c0.2,0.1,0.3,0.1,0.3-0.2l0-0.8
	c0-0.4,0-0.9,0-1.2c-0.1,0.2-0.5,0.6-0.7,1l-0.4,0.6c-0.2,0.2-0.1,0.3,0.1,0.3L142.1,9z" />
  <path class="st4" d="M146.2,13.5c-0.8-0.3-1.2-0.8-1.3-1c-0.1-0.3,0.1-0.9,0.3-1.5c0.1-0.1,0.3,0,0.3,0.1c-0.1,0.6,0.2,1.7,0.9,2
	c0.6,0.3,1.1,0,1.3-0.5c0.3-0.7-0.2-1.4-0.6-1.9c-0.5-0.6-0.9-1.4-0.6-2.2c0.4-1,1.4-1.3,2.7-0.8c0.3,0.1,0.6,0.3,0.9,0.6
	c0.1,0.1,0.2,0.1,0.3,0.2c0,0.2-0.1,0.7-0.4,1.3c-0.1,0.1-0.3,0-0.3-0.1c0-0.5,0-1.3-0.7-1.5c-0.6-0.2-1,0-1.2,0.4
	c-0.2,0.4,0,0.9,0.3,1.3l0.4,0.5c0.4,0.5,0.9,1.3,0.4,2.2C148.7,13.8,147.5,14.1,146.2,13.5" />
  <path class="st4" d="M152.2,11.1c0.4-0.8,0.5-0.9,0.2-1.2l-0.2-0.2c-0.1-0.1,0-0.3,0.2-0.3c0.6,0.3,1.2,0.6,1.9,1
	c0.7,0.4,1.1,0.7,1.4,1c0.4,0.5,0.7,1.2,0.2,1.9c-0.7,1.3-2.2,0.8-2.6,0.6c-0.1-0.1-0.2-0.1-0.3-0.2c0-0.1,0-0.2,0.1-0.2
	c0.8,0.2,1.2-0.2,1.5-0.8c0.3-0.6,0.4-1.4-0.4-1.8c-0.3-0.2-0.4-0.1-0.5,0.2l-1.9,3.4c-0.4,0.8-0.4,0.8-0.1,1.1l0.2,0.2
	c0.1,0.1,0,0.3-0.2,0.3c-0.4-0.3-0.8-0.5-1.2-0.7c-0.4-0.2-0.8-0.4-1.2-0.6c-0.1-0.1,0-0.3,0.1-0.3l0.2,0.1c0.4,0.1,0.5,0.1,0.9-0.6
	L152.2,11.1" />
  <path class="st4" d="M158.3,15.7c-0.1,0.2-0.1,0.2,0.1,0.4l0.5,0.4c0.4,0.3,0.5,0.3,0.9,0l0.2-0.2c0.1,0,0.3,0.1,0.3,0.2
	c-0.2,0.2-0.4,0.5-0.6,0.8c-0.2,0.3-0.4,0.6-0.5,0.8c-0.1,0-0.3-0.1-0.3-0.2l0.1-0.2c0.2-0.4,0.1-0.5-0.3-0.8l-0.5-0.4
	c-0.2-0.1-0.2-0.1-0.4,0.1l-0.6,0.9c-0.2,0.4-0.4,0.6-0.4,0.8c0,0.2,0.1,0.4,0.7,0.7c0.7,0.4,0.9,0.6,1.9,0c0.1,0,0.3,0.1,0.3,0.2
	c-0.3,0.4-0.9,0.9-1.1,1c-0.4-0.3-1.1-0.8-1.8-1.2l-1-0.7c-0.4-0.2-0.8-0.5-1.3-0.9c0-0.1,0.1-0.3,0.2-0.3l0.4,0.2
	c0.4,0.2,0.5,0.2,0.9-0.5l1.9-2.9c0.5-0.7,0.5-0.8,0.2-1.1l-0.2-0.2c0-0.1,0.1-0.3,0.2-0.3c0.4,0.3,0.7,0.5,1.1,0.8l1.6,1.1
	c0.5,0.3,0.9,0.6,1,0.7c-0.1,0.1-0.4,0.7-0.7,1.3c-0.1,0.1-0.3,0-0.3-0.2c0.1-0.3,0.1-0.6,0.1-0.8c0-0.2-0.2-0.5-0.6-0.7l-0.6-0.4
	c-0.3-0.2-0.3-0.2-0.5,0.1L158.3,15.7" />
  <path class="st4" d="M162.9,17.8c0.6-0.7,0.6-0.8,0.4-1.1l-0.2-0.2c0-0.1,0.1-0.3,0.2-0.2c0.6,0.4,1.1,0.8,1.8,1.4
	c0.6,0.5,1.1,1,1.2,1.4c0.2,0.6,0.1,1.1-0.2,1.6c-0.5,0.6-1.2,0.6-1.6,0.4c-0.1,0-0.1,0-0.2,0.1c-0.3,1.3-0.5,2.1-0.4,2.7
	c0.1,0.3,0.2,0.5,0.3,0.6c0,0.1-0.1,0.2-0.1,0.2c-0.2,0-0.4-0.2-0.6-0.4c-0.7-0.5-0.9-1.1-0.8-1.9c0.1-0.6,0.2-1.1,0.4-1.6
	c0.1-0.3,0-0.4-0.2-0.6c-0.3-0.2-0.3-0.2-0.4-0.1l-0.7,0.9c-0.5,0.7-0.5,0.7-0.3,1.1l0.2,0.2c0,0.1-0.1,0.2-0.2,0.3
	c-0.4-0.3-0.7-0.6-1-0.9c-0.4-0.3-0.7-0.5-1.1-0.8c0-0.1,0.1-0.3,0.2-0.3l0.2,0.1c0.4,0.2,0.5,0.2,1-0.5L162.9,17.8 M163.1,19.6
	c-0.2,0.3-0.2,0.3,0.2,0.6c0.3,0.2,0.5,0.3,0.7,0.2c0.2,0,0.5-0.1,0.9-0.6c0.5-0.6,0.5-1.4-0.1-1.8c-0.3-0.2-0.3-0.2-0.6,0.1
	L163.1,19.6z" />
  <path class="st4" d="M167.3,25c-0.2-0.2-0.2-0.2-0.3-0.1l-1,0.5c-0.2,0.1-0.2,0.1-0.3,0.2c0,0,0,0.2,0.2,0.4l0.2,0.2
	c0,0.1-0.1,0.2-0.2,0.2c-0.2-0.2-0.4-0.5-0.7-0.8c-0.2-0.2-0.4-0.4-0.7-0.7c0-0.1,0.1-0.2,0.2-0.2l0.2,0.2c0.2,0.1,0.4,0.2,0.7,0.1
	c0.4-0.1,0.8-0.3,1.5-0.6l2.2-1c0.6-0.3,0.9-0.4,1.1-0.6c0.4,0.2,0.9,0.2,1,0.2c0.1,0.1,0.1,0.2,0,0.3c-0.1,0.2-0.3,0.6-0.6,1.2
	l-1.7,3.4c-0.3,0.5-0.4,0.7-0.2,1l0.2,0.3c0,0.1-0.1,0.2-0.2,0.2c-0.3-0.3-0.6-0.7-1-1c-0.3-0.3-0.6-0.6-0.9-0.9
	c0-0.1,0.1-0.3,0.2-0.2l0.2,0.2c0.2,0.1,0.2,0.1,0.3,0.1c0,0,0.2-0.2,0.3-0.6l0.4-0.7c0.1-0.1,0-0.2-0.2-0.4L167.3,25 M168.4,25.4
	c0.1,0.2,0.2,0.2,0.3-0.1l0.4-0.7c0.2-0.4,0.4-0.8,0.5-1c-0.2,0.1-0.7,0.3-1.1,0.5l-0.7,0.3c-0.2,0.1-0.2,0.2-0.1,0.3L168.4,25.4z" />
  <polyline class="st0" points="122.7,20.4 120.9,19.3 119,20.3 119.4,18.2 117.9,16.7 120,16.5 121,14.6 121.9,16.5 124,16.8 
	122.4,18.3 122.7,20.4 " />
  <polyline class="st0" points="129.6,21.1 127.9,19.9 125.9,20.7 126.5,18.7 125.2,17.1 127.3,17 128.4,15.2 129.1,17.2 131.1,17.7 
	129.5,19 129.6,21.1 " />
  <polyline class="st0" points="136.4,23.2 134.9,21.7 132.8,22.1 133.7,20.2 132.7,18.4 134.8,18.7 136.2,17.1 136.6,19.2 
	138.5,20.1 136.6,21.1 136.4,23.2 " />
  <polyline class="st0" points="143.1,26.1 141.8,24.5 139.7,24.6 140.9,22.8 140.1,20.9 142.2,21.5 143.8,20.1 143.8,22.2 
	145.6,23.4 143.6,24.1 143.1,26.1 " />
  <polyline class="st0" points="149.2,30 148.2,28.2 146.1,28.1 147.5,26.5 146.9,24.5 148.9,25.3 150.6,24.2 150.5,26.2 152.1,27.6 
	150,28.1 149.2,30 " />
  <polyline class="st0" points="157.7,32 155.7,32.4 154.8,34.3 153.8,32.5 151.7,32.2 153.2,30.7 152.8,28.6 154.6,29.6 156.5,28.5 
	156.2,30.6 157.7,32 " />
  <polyline class="st0" points="162.8,38.4 160.7,38.4 159.5,40.1 158.8,38.1 156.8,37.5 158.6,36.3 158.5,34.2 160.2,35.4 
	162.2,34.8 161.5,36.8 162.8,38.4 " />
  <polyline class="st0" points="152,43.9 151.1,42 149.1,41.6 150.6,40.2 150.3,38.1 152.1,39.1 154,38.2 153.6,40.3 155.1,41.8 
	153,42 152,43.9 " />
  <polyline class="st0" points="146.7,38.2 145.6,36.4 143.6,36.2 145,34.7 144.5,32.6 146.4,33.5 148.2,32.4 148,34.5 149.6,35.9 
	147.5,36.3 146.7,38.2 " />
  <polyline class="st0" points="140.4,34.3 139.3,32.5 137.1,32.5 138.5,30.8 137.9,28.8 139.8,29.6 141.6,28.4 141.5,30.5 
	143.1,31.7 141.1,32.3 140.4,34.3 " />
  <polyline class="st0" points="134,30.8 132.5,29.4 130.4,29.9 131.3,27.9 130.2,26.1 132.2,26.4 133.6,24.8 134.1,26.8 136,27.6 
	134.2,28.7 134,30.8 " />
  <polyline class="st0" points="136.1,41 134.8,39.4 132.7,39.6 133.8,37.8 133,35.9 135,36.4 136.6,35 136.7,37.1 138.5,38.2 
	136.6,38.9 136.1,41 " />
  <polyline class="st0" points="129.2,37.8 127.7,36.4 125.6,36.8 126.5,34.9 125.5,33.1 127.5,33.4 129,31.8 129.3,33.9 131.3,34.7 
	129.4,35.7 129.2,37.8 " />
  <polyline class="st0" points="126.9,29.2 125.1,28 123.2,28.8 123.8,26.7 122.5,25.1 124.6,25.1 125.8,23.3 126.4,25.3 128.5,25.9 
	126.8,27.1 126.9,29.2 " />
  <polyline class="st0" points="112.5,21.1 114.3,19.9 116.2,20.7 115.6,18.7 117,17.1 114.9,17 113.7,15.2 113,17.2 111,17.7 
	112.6,19 112.5,21.1 " />
  <polyline class="st0" points="105.2,23.2 106.7,21.7 108.8,22.1 107.8,20.2 108.9,18.4 106.8,18.7 105.3,17.1 105,19.2 103.1,20.1 
	105,21.1 105.2,23.2 " />
  <polyline class="st0" points="98.7,26.1 100,24.5 102.1,24.6 100.9,22.8 101.6,20.9 99.6,21.5 98,20.1 97.9,22.3 96.2,23.4 
	98.2,24.1 98.7,26.1 " />
  <polyline class="st0" points="92.4,30 93.5,28.2 95.6,28.1 94.2,26.5 94.7,24.5 92.8,25.3 91,24.2 91.2,26.2 89.6,27.6 91.6,28.1 
	92.4,30 " />
  <polyline class="st0" points="84.1,32 86.1,32.4 87,34.3 88,32.5 90.1,32.2 88.6,30.7 89,28.6 87.2,29.6 85.3,28.5 85.6,30.6 
	84.1,32 " />
  <polyline class="st0" points="78.9,38.5 81,38.4 82.2,40.1 82.9,38.1 84.9,37.5 83.2,36.3 83.2,34.2 81.5,35.5 79.5,34.8 80.2,36.8 
	78.9,38.5 " />
  <polyline class="st0" points="75.2,45.5 77.2,45 78.8,46.3 78.9,44.2 80.7,43.1 78.8,42.4 78.3,40.3 76.9,42 74.8,41.8 76,43.6 
	75.2,45.5 " />
  <polyline class="st0" points="82,48 84,47.7 85.4,49.3 85.9,47.3 87.8,46.5 86,45.4 85.8,43.3 84.2,44.7 82.2,44.2 83.1,46.2 82,48 
	" />
  <polyline class="st0" points="94.9,44.1 97,44.3 98,46.2 98.9,44.3 100.9,44 99.4,42.5 99.7,40.5 97.9,41.5 96,40.5 96.4,42.6 
	94.9,44.1 " />
  <polyline class="st0" points="145.4,44.1 143.3,44.3 142.4,46.2 141.5,44.3 139.4,44 140.9,42.5 140.6,40.5 142.4,41.5 144.3,40.5 
	143.9,42.6 145.4,44.1 " />
  <polyline class="st0" points="159.8,48 157.7,47.7 156.3,49.3 155.9,47.3 153.9,46.5 155.7,45.4 155.9,43.3 157.5,44.7 159.5,44.2 
	158.7,46.2 159.8,48 " />
  <polyline class="st0" points="166.5,45.5 164.5,45 162.9,46.3 162.8,44.2 161,43.1 162.9,42.4 163.4,40.3 164.7,42 166.8,41.8 
	165.7,43.6 166.5,45.5 " />
  <polyline class="st0" points="89.6,43.9 90.5,42 92.6,41.6 91,40.2 91.3,38.1 89.5,39.1 87.6,38.2 88,40.3 86.6,41.8 88.6,42 
	89.6,43.9 " />
  <polyline class="st0" points="95.5,38.2 96.5,36.4 98.6,36.2 97.2,34.7 97.6,32.6 95.7,33.5 93.9,32.4 94.1,34.5 92.6,35.9 
	94.6,36.3 95.5,38.2 " />
  <polyline class="st0" points="101.6,34.3 102.7,32.5 104.8,32.5 103.5,30.8 104.1,28.8 102.1,29.6 100.4,28.4 100.5,30.5 98.8,31.7 
	100.9,32.3 101.6,34.3 " />
  <polyline class="st0" points="108.4,30.8 110,29.4 112,29.9 111.2,27.9 112.3,26.1 110.2,26.4 108.8,24.8 108.4,26.8 106.4,27.6 
	108.2,28.7 108.4,30.8 " />
  <polyline class="st0" points="104.6,41 105.7,39.2 107.8,39.1 106.5,37.5 107,35.4 105.1,36.3 103.3,35.1 103.5,37.2 101.8,38.5 
	103.9,39 104.6,41 " />
  <polyline class="st0" points="111.8,37.8 113.3,36.3 115.4,36.7 114.4,34.9 115.4,33 113.4,33.3 111.9,31.8 111.6,33.9 109.7,34.8 
	111.6,35.7 111.8,37.8 " />
  <polyline class="st0" points="115.9,29.2 117.6,28 119.6,28.8 119,26.7 120.3,25.1 118.2,25.1 117,23.3 116.4,25.3 114.3,25.9 
	116,27.1 115.9,29.2 " />
  <polyline class="st0" points="122.6,35.9 120.7,34.9 118.8,35.8 119.2,33.8 117.8,32.3 119.9,32 120.8,30.2 121.7,32.1 123.8,32.4 
	122.3,33.8 122.6,35.9 " />
  <g>
    <path class="st4" d="M25.5,56.7l22,21.9c3.6,3.6,6.7,6.1,9.3,7.4c2.6,1.3,5.1,2,7.7,2.2v1.6H36v-1.6c1.7,0,2.9-0.3,3.7-0.9
		c0.7-0.6,1.1-1.2,1.1-1.9c0-0.7-0.1-1.3-0.4-1.9c-0.3-0.6-1.2-1.6-2.8-3.1L17,60v19.2c0,3,0.2,5,0.6,6c0.3,0.7,0.9,1.4,1.8,1.9
		c1.3,0.7,2.6,1.1,4,1.1h2v1.6H0v-1.6h2.1c2.5,0,4.3-0.7,5.4-2.2c0.7-0.9,1.1-3.2,1.1-6.8V40.7c0-3-0.2-5-0.6-6
		c-0.3-0.7-0.9-1.3-1.8-1.8c-1.3-0.7-2.6-1.1-4.1-1.1H0v-1.6h25.5v1.6h-2c-1.4,0-2.7,0.3-4,1c-0.9,0.5-1.5,1.2-1.9,2.1
		c-0.4,0.9-0.5,2.9-0.5,5.8V59c0.6-0.6,2.6-2.4,6-5.6c8.7-8,14-13.3,15.8-16c0.8-1.2,1.2-2.2,1.2-3.1c0-0.7-0.3-1.3-0.9-1.8
		c-0.6-0.5-1.7-0.8-3.1-0.8h-1.4v-1.6h21.9v1.6c-1.3,0-2.5,0.2-3.5,0.5c-1.1,0.3-2.4,0.9-3.9,1.9c-1.5,0.9-3.4,2.4-5.6,4.5
		c-0.6,0.6-3.6,3.6-8.9,9L25.5,56.7" />
  </g>
  <path class="st4" d="M69.1,78.4c-3,2.3-4.8,3.6-5.6,4c-1.1,0.5-2.4,0.8-3.6,0.8c-2,0-3.7-0.7-5-2.1c-1.3-1.4-1.9-3.2-1.9-5.4
	c0-1.4,0.3-2.6,0.9-3.7c0.9-1.4,2.4-2.8,4.5-4c2.1-1.3,5.7-2.8,10.7-4.6v-1.1c0-2.9-0.5-4.9-1.4-5.9c-0.9-1.1-2.3-1.6-4-1.6
	c-1.3,0-2.4,0.4-3.2,1.1c-0.8,0.7-1.2,1.5-1.2,2.5l0.1,1.8c0,1-0.2,1.7-0.7,2.2c-0.5,0.5-1.1,0.8-1.9,0.8c-0.8,0-1.4-0.3-1.9-0.8
	c-0.5-0.5-0.7-1.3-0.7-2.2c0-1.8,0.9-3.5,2.8-5c1.9-1.5,4.5-2.3,7.8-2.3c2.6,0,4.7,0.4,6.3,1.3c1.2,0.7,2.2,1.7,2.8,3.1
	c0.4,0.9,0.6,2.8,0.6,5.6v9.8c0,2.8,0.1,4.5,0.2,5.1c0.1,0.6,0.3,1,0.5,1.3c0.2,0.2,0.5,0.3,0.8,0.3c0.3,0,0.6-0.1,0.9-0.2
	c0.4-0.3,1.3-1,2.6-2.3v1.8c-2.4,3.2-4.6,4.7-6.8,4.7c-1,0-1.9-0.4-2.5-1.1C69.4,81.3,69.1,80.1,69.1,78.4 M69.1,76.3v-11
	c-3.2,1.3-5.2,2.2-6.2,2.7c-1.7,0.9-2.9,1.9-3.6,2.9c-0.7,1-1.1,2.1-1.1,3.3c0,1.5,0.5,2.8,1.4,3.8c0.9,1,2,1.5,3.1,1.5
	C64.4,79.5,66.5,78.4,69.1,76.3z" />
  <path class="st4" d="M89.9,58.9c3.4-4.1,6.6-6.1,9.7-6.1c1.6,0,2.9,0.4,4.1,1.2c1.1,0.8,2,2.1,2.7,3.9c0.5,1.3,0.7,3.2,0.7,5.8V76
	c0,1.8,0.1,3.1,0.4,3.7c0.2,0.5,0.6,0.9,1.1,1.2c0.5,0.3,1.5,0.4,2.9,0.4v1.1H97.2v-1.1h0.6c1.3,0,2.3-0.2,2.8-0.6
	c0.5-0.4,0.9-1,1.1-1.8c0.1-0.3,0.1-1.3,0.1-3V64.1c0-2.6-0.3-4.6-1-5.7c-0.7-1.2-1.8-1.8-3.5-1.8c-2.5,0-5,1.4-7.5,4.1V76
	c0,2,0.1,3.2,0.3,3.6c0.3,0.6,0.7,1.1,1.2,1.3c0.5,0.3,1.6,0.4,3.1,0.4v1.1H80.3v-1.1h0.6c1.5,0,2.5-0.4,3-1.1
	c0.5-0.7,0.8-2.2,0.8-4.3V65.2c0-3.5-0.1-5.6-0.2-6.4c-0.2-0.8-0.4-1.3-0.7-1.5c-0.3-0.3-0.8-0.4-1.3-0.4c-0.6,0-1.3,0.2-2.1,0.5
	l-0.5-1.1l8.7-3.5h1.4V58.9" />
  <path class="st4" d="M132.6,52.7v9.9h-1c-0.8-3.1-1.8-5.2-3.1-6.3c-1.3-1.1-2.9-1.7-4.8-1.7c-1.5,0-2.7,0.4-3.6,1.2
	c-0.9,0.8-1.4,1.6-1.4,2.6c0,1.2,0.3,2.2,1,3c0.7,0.9,2,1.8,4,2.8l4.6,2.2c4.3,2.1,6.4,4.8,6.4,8.3c0,2.6-1,4.8-3,6.4
	c-2,1.6-4.2,2.4-6.7,2.4c-1.8,0-3.8-0.3-6.1-0.9c-0.7-0.2-1.3-0.3-1.7-0.3c-0.5,0-0.9,0.3-1.1,0.8h-1V72.6h1c0.6,3,1.7,5.2,3.4,6.7
	c1.7,1.5,3.5,2.2,5.6,2.2c1.5,0,2.6-0.4,3.6-1.3c0.9-0.9,1.4-1.9,1.4-3.1c0-1.5-0.5-2.7-1.5-3.7c-1-1-3.1-2.2-6.1-3.8
	c-3.1-1.5-5.1-2.9-6-4.1c-0.9-1.2-1.4-2.7-1.4-4.6c0-2.4,0.8-4.4,2.5-6c1.6-1.6,3.7-2.4,6.3-2.4c1.1,0,2.5,0.2,4.1,0.7
	c1.1,0.3,1.8,0.5,2.2,0.5c0.3,0,0.6-0.1,0.8-0.2c0.2-0.1,0.4-0.5,0.7-1H132.6" />
  <path class="st4" d="M155.5,78.4c-3,2.3-4.8,3.6-5.6,4c-1.1,0.5-2.4,0.8-3.6,0.8c-2,0-3.7-0.7-5-2.1c-1.3-1.4-1.9-3.2-1.9-5.4
	c0-1.4,0.3-2.6,0.9-3.7c0.9-1.4,2.4-2.8,4.5-4c2.1-1.3,5.7-2.8,10.7-4.6v-1.1c0-2.9-0.5-4.9-1.4-5.9c-0.9-1.1-2.3-1.6-4-1.6
	c-1.3,0-2.4,0.4-3.2,1.1c-0.8,0.7-1.2,1.5-1.2,2.5l0.1,1.8c0,1-0.2,1.7-0.7,2.2c-0.5,0.5-1.1,0.8-1.9,0.8c-0.8,0-1.4-0.3-1.9-0.8
	c-0.5-0.5-0.7-1.3-0.7-2.2c0-1.8,0.9-3.5,2.8-5c1.9-1.5,4.5-2.3,7.8-2.3c2.6,0,4.7,0.4,6.3,1.3c1.2,0.7,2.2,1.7,2.8,3.1
	c0.4,0.9,0.6,2.8,0.6,5.6v9.8c0,2.8,0.1,4.5,0.2,5.1c0.1,0.6,0.3,1,0.5,1.3c0.2,0.2,0.5,0.3,0.8,0.3c0.3,0,0.6-0.1,0.9-0.2
	c0.4-0.3,1.3-1,2.6-2.3v1.8c-2.4,3.2-4.6,4.7-6.8,4.7c-1,0-1.9-0.4-2.5-1.1C155.8,81.3,155.5,80.1,155.5,78.4 M155.5,76.3v-11
	c-3.2,1.3-5.2,2.2-6.2,2.7c-1.7,0.9-2.9,1.9-3.6,2.9c-0.7,1-1.1,2.1-1.1,3.3c0,1.5,0.5,2.8,1.4,3.8c0.9,1,2,1.5,3.1,1.5
	C150.8,79.5,152.9,78.4,155.5,76.3z" />
  <path class="st4" d="M186.5,52.7v9.9h-1c-0.8-3.1-1.8-5.2-3.1-6.3c-1.3-1.1-2.9-1.7-4.8-1.7c-1.5,0-2.7,0.4-3.6,1.2
	c-0.9,0.8-1.4,1.6-1.4,2.6c0,1.2,0.3,2.2,1,3c0.7,0.9,2,1.8,4,2.8l4.6,2.2c4.3,2.1,6.4,4.8,6.4,8.3c0,2.6-1,4.8-3,6.4
	c-2,1.6-4.2,2.4-6.7,2.4c-1.8,0-3.8-0.3-6.1-0.9c-0.7-0.2-1.3-0.3-1.7-0.3c-0.5,0-0.9,0.3-1.1,0.8h-1V72.6h1c0.6,3,1.7,5.2,3.4,6.7
	c1.7,1.5,3.5,2.2,5.6,2.2c1.5,0,2.6-0.4,3.6-1.3c0.9-0.9,1.4-1.9,1.4-3.1c0-1.5-0.5-2.7-1.5-3.7c-1-1-3.1-2.2-6.1-3.8
	c-3.1-1.5-5.1-2.9-6-4.1c-0.9-1.2-1.4-2.7-1.4-4.6c0-2.4,0.8-4.4,2.5-6c1.6-1.6,3.7-2.4,6.3-2.4c1.1,0,2.5,0.2,4.1,0.7
	c1.1,0.3,1.8,0.5,2.2,0.5c0.3,0,0.6-0.1,0.8-0.2c0.2-0.1,0.4-0.5,0.7-1H186.5" />
  <g>
    <path class="st4" d="M27.1,93.2c1.5,0,2.7,0.6,3.8,1.7c1.1,1.1,1.6,2.5,1.6,4.2c0,1.7-0.5,3.1-1.6,4.3S28.5,105,27,105
		c-1.5,0-2.9-0.6-3.9-1.7c-1.1-1.1-1.6-2.5-1.6-4.3c0-1.8,0.6-3.2,1.8-4.4C24.4,93.7,25.6,93.2,27.1,93.2z M26.9,93.8
		c-1,0-1.8,0.4-2.4,1.1c-0.8,0.9-1.1,2.3-1.1,4.1c0,1.8,0.4,3.3,1.2,4.2c0.6,0.8,1.4,1.1,2.4,1.1c1.1,0,1.9-0.4,2.6-1.2
		c0.7-0.8,1-2.1,1-3.9c0-1.9-0.4-3.4-1.1-4.3C28.9,94.2,28,93.8,26.9,93.8z" />
    <path class="st4" d="M36.7,97.7v5c0,0.7,0.1,1.2,0.2,1.3c0.2,0.2,0.5,0.4,0.8,0.4h0.7v0.3h-4.5v-0.3h0.3c0.2,0,0.4-0.1,0.6-0.2
		s0.3-0.3,0.4-0.4c0.1-0.2,0.1-0.6,0.1-1.1v-5h-1.5v-0.6h1.5v-0.5c0-0.8,0.1-1.4,0.4-1.9s0.6-1,1.1-1.3c0.5-0.3,1.1-0.5,1.7-0.5
		c0.6,0,1.1,0.2,1.6,0.6c0.3,0.2,0.5,0.5,0.5,0.8c0,0.2-0.1,0.3-0.2,0.5S40,95,39.9,95c-0.1,0-0.3,0-0.4-0.1
		c-0.1-0.1-0.3-0.3-0.5-0.6s-0.4-0.5-0.6-0.6c-0.2-0.1-0.4-0.2-0.6-0.2c-0.3,0-0.5,0.1-0.6,0.2s-0.3,0.3-0.4,0.6s-0.1,1-0.1,2.2v0.5
		h2v0.6H36.7z" />
    <path class="st4" d="M42,97.7v5c0,0.7,0.1,1.2,0.2,1.3c0.2,0.2,0.5,0.4,0.8,0.4h0.7v0.3h-4.5v-0.3h0.3c0.2,0,0.4-0.1,0.6-0.2
		s0.3-0.3,0.4-0.4c0.1-0.2,0.1-0.6,0.1-1.1v-5h-1.5v-0.6h1.5v-0.5c0-0.8,0.1-1.4,0.4-1.9s0.6-1,1.1-1.3c0.5-0.3,1.1-0.5,1.7-0.5
		c0.6,0,1.1,0.2,1.6,0.6c0.3,0.2,0.5,0.5,0.5,0.8c0,0.2-0.1,0.3-0.2,0.5S45.4,95,45.2,95c-0.1,0-0.3,0-0.4-0.1
		c-0.1-0.1-0.3-0.3-0.5-0.6s-0.4-0.5-0.6-0.6c-0.2-0.1-0.4-0.2-0.6-0.2c-0.3,0-0.5,0.1-0.6,0.2s-0.3,0.3-0.4,0.6s-0.1,1-0.1,2.2v0.5
		h2v0.6H42z" />
    <path class="st4" d="M47.3,96.9v6.1c0,0.5,0,0.8,0.1,1c0.1,0.2,0.2,0.3,0.3,0.4c0.1,0.1,0.4,0.1,0.7,0.1v0.3h-3.7v-0.3
		c0.4,0,0.6,0,0.7-0.1c0.1-0.1,0.2-0.2,0.3-0.4c0.1-0.2,0.1-0.5,0.1-1v-2.9c0-0.8,0-1.4-0.1-1.6c0-0.2-0.1-0.3-0.2-0.4
		S45.5,98,45.4,98c-0.2,0-0.3,0-0.6,0.1l-0.1-0.3l2.3-0.9H47.3z M46.6,92.9c0.2,0,0.4,0.1,0.6,0.2c0.2,0.2,0.2,0.4,0.2,0.6
		s-0.1,0.4-0.2,0.6c-0.2,0.2-0.4,0.2-0.6,0.2s-0.4-0.1-0.6-0.2s-0.2-0.4-0.2-0.6s0.1-0.4,0.2-0.6C46.2,93,46.4,92.9,46.6,92.9z" />
    <path class="st4" d="M55.9,101.8c-0.2,1-0.6,1.8-1.2,2.3c-0.6,0.5-1.3,0.8-2,0.8c-0.9,0-1.6-0.4-2.3-1.1c-0.6-0.7-1-1.7-1-2.9
		c0-1.2,0.4-2.2,1.1-2.9c0.7-0.7,1.6-1.1,2.6-1.1c0.7,0,1.4,0.2,1.8,0.6s0.7,0.8,0.7,1.2c0,0.2-0.1,0.4-0.2,0.5
		c-0.1,0.1-0.3,0.2-0.6,0.2c-0.3,0-0.6-0.1-0.7-0.3C54.1,99,54,98.8,54,98.5c0-0.3-0.1-0.6-0.3-0.7c-0.2-0.2-0.5-0.2-0.8-0.2
		c-0.6,0-1,0.2-1.3,0.6c-0.4,0.5-0.7,1.3-0.7,2.1c0,0.9,0.2,1.7,0.7,2.4c0.4,0.7,1,1,1.8,1c0.5,0,1-0.2,1.5-0.6
		c0.3-0.3,0.6-0.7,0.9-1.4L55.9,101.8z" />
    <path class="st4" d="M58.3,100c0,1.1,0.3,2,0.8,2.7c0.6,0.6,1.2,1,2,1c0.5,0,0.9-0.1,1.3-0.4c0.4-0.3,0.7-0.7,0.9-1.4l0.3,0.2
		c-0.1,0.8-0.5,1.4-1,2.1c-0.6,0.6-1.3,0.9-2.1,0.9c-0.9,0-1.7-0.4-2.3-1.1c-0.7-0.7-1-1.7-1-2.9c0-1.3,0.3-2.3,1-3
		c0.7-0.7,1.5-1.1,2.5-1.1c0.9,0,1.6,0.3,2.1,0.8s0.8,1.3,0.8,2.3H58.3z M58.3,99.5h3.5c0-0.5-0.1-0.8-0.2-1
		c-0.1-0.3-0.3-0.6-0.6-0.7c-0.3-0.2-0.6-0.3-0.9-0.3c-0.5,0-0.9,0.2-1.2,0.5C58.5,98.4,58.3,98.9,58.3,99.5z" />
    <path class="st4" d="M72.5,96.9c1.2,0,2.1,0.4,2.8,1.3c0.6,0.7,0.9,1.6,0.9,2.6c0,0.7-0.2,1.4-0.5,2.1s-0.8,1.2-1.3,1.6
		c-0.6,0.4-1.2,0.5-1.9,0.5c-1.1,0-2.1-0.5-2.7-1.4c-0.6-0.8-0.9-1.6-0.9-2.6c0-0.7,0.2-1.4,0.5-2.1c0.3-0.7,0.8-1.2,1.4-1.5
		S71.9,96.9,72.5,96.9z M72.2,97.4c-0.3,0-0.6,0.1-0.9,0.3c-0.3,0.2-0.5,0.5-0.7,0.9s-0.3,1-0.3,1.7c0,1.1,0.2,2.1,0.7,2.9
		c0.4,0.8,1,1.2,1.7,1.2c0.5,0,1-0.2,1.3-0.7c0.3-0.4,0.5-1.2,0.5-2.3c0-1.4-0.3-2.4-0.9-3.2C73.3,97.7,72.8,97.4,72.2,97.4z" />
    <path class="st4" d="M80.2,97.7v5c0,0.7,0.1,1.2,0.2,1.3c0.2,0.2,0.5,0.4,0.8,0.4H82v0.3h-4.5v-0.3h0.3c0.2,0,0.4-0.1,0.6-0.2
		s0.3-0.3,0.4-0.4c0.1-0.2,0.1-0.6,0.1-1.1v-5h-1.5v-0.6h1.5v-0.5c0-0.8,0.1-1.4,0.4-1.9s0.6-1,1.1-1.3c0.5-0.3,1.1-0.5,1.7-0.5
		c0.6,0,1.1,0.2,1.6,0.6c0.3,0.2,0.5,0.5,0.5,0.8c0,0.2-0.1,0.3-0.2,0.5S83.6,95,83.4,95c-0.1,0-0.3,0-0.4-0.1
		c-0.1-0.1-0.3-0.3-0.5-0.6s-0.4-0.5-0.6-0.6c-0.2-0.1-0.4-0.2-0.6-0.2c-0.3,0-0.5,0.1-0.6,0.2s-0.3,0.3-0.4,0.6s-0.1,1-0.1,2.2v0.5
		h2v0.6H80.2z" />
    <path class="st4" d="M91.9,104.4v0.3h-4.8v-0.3h0.4c0.5,0,0.8-0.1,1-0.4c0.1-0.2,0.2-0.6,0.2-1.3v-7.3c0-0.6,0-0.9-0.1-1.1
		c-0.1-0.1-0.2-0.3-0.3-0.4c-0.2-0.1-0.5-0.2-0.8-0.2h-0.4v-0.3h4.8v0.3h-0.4c-0.5,0-0.8,0.1-1,0.4c-0.1,0.2-0.2,0.6-0.2,1.3v7.3
		c0,0.6,0,0.9,0.1,1.1c0.1,0.1,0.2,0.3,0.3,0.4c0.2,0.1,0.5,0.2,0.8,0.2H91.9z" />
    <path class="st4" d="M95.1,98.5c0.9-1.1,1.7-1.6,2.5-1.6c0.4,0,0.8,0.1,1.1,0.3c0.3,0.2,0.5,0.5,0.7,1c0.1,0.3,0.2,0.8,0.2,1.5v3.2
		c0,0.5,0,0.8,0.1,1c0.1,0.1,0.2,0.2,0.3,0.3c0.1,0.1,0.4,0.1,0.8,0.1v0.3H97v-0.3h0.2c0.4,0,0.6-0.1,0.7-0.2
		c0.1-0.1,0.2-0.3,0.3-0.5c0-0.1,0-0.3,0-0.8v-3.1c0-0.7-0.1-1.2-0.3-1.5s-0.5-0.5-0.9-0.5c-0.7,0-1.3,0.4-2,1.1v4
		c0,0.5,0,0.8,0.1,1c0.1,0.2,0.2,0.3,0.3,0.4c0.1,0.1,0.4,0.1,0.8,0.1v0.3h-3.8v-0.3h0.2c0.4,0,0.6-0.1,0.8-0.3
		c0.1-0.2,0.2-0.6,0.2-1.1v-2.8c0-0.9,0-1.5-0.1-1.7c0-0.2-0.1-0.3-0.2-0.4C93.4,98,93.2,98,93.1,98c-0.2,0-0.3,0-0.6,0.1l-0.1-0.3
		l2.3-0.9h0.4V98.5z" />
    <path class="st4" d="M104.3,97.7v5c0,0.7,0.1,1.2,0.2,1.3c0.2,0.2,0.5,0.4,0.8,0.4h0.7v0.3h-4.5v-0.3h0.3c0.2,0,0.4-0.1,0.6-0.2
		c0.2-0.1,0.3-0.3,0.4-0.4s0.1-0.6,0.1-1.1v-5h-1.5v-0.6h1.5v-0.5c0-0.8,0.1-1.4,0.4-1.9c0.2-0.5,0.6-1,1.1-1.3
		c0.5-0.3,1.1-0.5,1.7-0.5c0.6,0,1.1,0.2,1.6,0.6c0.3,0.2,0.5,0.5,0.5,0.8c0,0.2-0.1,0.3-0.2,0.5s-0.3,0.2-0.5,0.2
		c-0.1,0-0.3,0-0.4-0.1c-0.1-0.1-0.3-0.3-0.5-0.6c-0.2-0.3-0.4-0.5-0.6-0.6c-0.2-0.1-0.4-0.2-0.6-0.2c-0.3,0-0.5,0.1-0.6,0.2
		s-0.3,0.3-0.4,0.6s-0.1,1-0.1,2.2v0.5h2v0.6H104.3z" />
    <path class="st4" d="M110.7,96.9c1.2,0,2.1,0.4,2.8,1.3c0.6,0.7,0.9,1.6,0.9,2.6c0,0.7-0.2,1.4-0.5,2.1s-0.8,1.2-1.3,1.6
		c-0.6,0.4-1.2,0.5-1.9,0.5c-1.1,0-2.1-0.5-2.7-1.4c-0.6-0.8-0.9-1.6-0.9-2.6c0-0.7,0.2-1.4,0.5-2.1c0.3-0.7,0.8-1.2,1.4-1.5
		S110.1,96.9,110.7,96.9z M110.5,97.4c-0.3,0-0.6,0.1-0.9,0.3c-0.3,0.2-0.5,0.5-0.7,0.9s-0.3,1-0.3,1.7c0,1.1,0.2,2.1,0.7,2.9
		c0.4,0.8,1,1.2,1.7,1.2c0.5,0,1-0.2,1.3-0.7c0.3-0.4,0.5-1.2,0.5-2.3c0-1.4-0.3-2.4-0.9-3.2C111.6,97.7,111.1,97.4,110.5,97.4z" />
    <path class="st4" d="M117.7,96.9v1.7c0.6-1.1,1.3-1.7,2-1.7c0.3,0,0.6,0.1,0.8,0.3s0.3,0.4,0.3,0.6c0,0.2-0.1,0.4-0.2,0.5
		c-0.1,0.1-0.3,0.2-0.5,0.2c-0.2,0-0.4-0.1-0.7-0.3c-0.2-0.2-0.4-0.3-0.5-0.3c-0.1,0-0.2,0.1-0.3,0.2c-0.2,0.2-0.5,0.6-0.8,1.1v3.6
		c0,0.4,0.1,0.7,0.2,1c0.1,0.2,0.2,0.3,0.4,0.4c0.2,0.1,0.4,0.1,0.8,0.1v0.3h-3.9v-0.3c0.4,0,0.7-0.1,0.9-0.2
		c0.1-0.1,0.2-0.2,0.3-0.4c0-0.1,0-0.4,0-0.8v-2.9c0-0.9,0-1.4-0.1-1.6s-0.1-0.3-0.2-0.4s-0.2-0.1-0.4-0.1c-0.2,0-0.4,0-0.6,0.1
		l-0.1-0.3l2.3-0.9H117.7z" />
    <path class="st4" d="M123.4,98.5c0.6-0.6,0.9-0.9,1-1c0.2-0.2,0.5-0.4,0.8-0.5c0.3-0.1,0.6-0.2,0.9-0.2c0.5,0,0.9,0.1,1.2,0.4
		c0.3,0.3,0.6,0.7,0.7,1.2c0.6-0.7,1.1-1.1,1.4-1.3c0.4-0.2,0.8-0.3,1.2-0.3c0.4,0,0.8,0.1,1.1,0.3c0.3,0.2,0.6,0.5,0.7,1
		c0.1,0.3,0.2,0.8,0.2,1.5v3.3c0,0.5,0,0.8,0.1,1c0.1,0.1,0.2,0.2,0.3,0.3s0.4,0.1,0.7,0.1v0.3H130v-0.3h0.2c0.3,0,0.6-0.1,0.8-0.2
		c0.1-0.1,0.2-0.2,0.3-0.4c0-0.1,0-0.4,0-0.8v-3.3c0-0.6-0.1-1.1-0.2-1.3c-0.2-0.4-0.6-0.5-1-0.5c-0.3,0-0.6,0.1-0.9,0.2
		s-0.7,0.4-1.1,0.8l0,0.1l0,0.4v3.6c0,0.5,0,0.8,0.1,1c0.1,0.1,0.2,0.2,0.3,0.3s0.4,0.1,0.8,0.1v0.3h-3.8v-0.3c0.4,0,0.7,0,0.9-0.1
		c0.2-0.1,0.3-0.2,0.3-0.4c0-0.1,0-0.4,0-0.8v-3.3c0-0.6-0.1-1.1-0.3-1.3c-0.2-0.4-0.6-0.5-1-0.5c-0.3,0-0.6,0.1-0.9,0.2
		c-0.5,0.2-0.8,0.5-1.1,0.8v4.1c0,0.5,0,0.8,0.1,1s0.2,0.3,0.3,0.3c0.1,0.1,0.4,0.1,0.8,0.1v0.3h-3.8v-0.3c0.3,0,0.6,0,0.7-0.1
		c0.1-0.1,0.2-0.2,0.3-0.4s0.1-0.5,0.1-1v-2.9c0-0.8,0-1.4-0.1-1.6c0-0.2-0.1-0.3-0.2-0.4s-0.2-0.1-0.3-0.1c-0.2,0-0.3,0-0.6,0.1
		l-0.1-0.3l2.3-0.9h0.4V98.5z" />
    <path class="st4" d="M138.7,103.6c-0.8,0.6-1.3,1-1.5,1c-0.3,0.1-0.6,0.2-1,0.2c-0.5,0-1-0.2-1.3-0.5c-0.3-0.4-0.5-0.8-0.5-1.4
		c0-0.4,0.1-0.7,0.3-1c0.2-0.4,0.6-0.7,1.2-1.1s1.5-0.7,2.8-1.2v-0.3c0-0.8-0.1-1.3-0.4-1.6c-0.2-0.3-0.6-0.4-1.1-0.4
		c-0.3,0-0.6,0.1-0.8,0.3c-0.2,0.2-0.3,0.4-0.3,0.6l0,0.5c0,0.3-0.1,0.5-0.2,0.6c-0.1,0.1-0.3,0.2-0.5,0.2c-0.2,0-0.4-0.1-0.5-0.2
		s-0.2-0.3-0.2-0.6c0-0.5,0.2-0.9,0.7-1.3s1.2-0.6,2.1-0.6c0.7,0,1.2,0.1,1.7,0.3c0.3,0.2,0.6,0.4,0.7,0.8c0.1,0.2,0.1,0.7,0.1,1.5
		v2.6c0,0.7,0,1.2,0,1.3c0,0.2,0.1,0.3,0.1,0.3s0.1,0.1,0.2,0.1c0.1,0,0.2,0,0.2-0.1c0.1-0.1,0.3-0.3,0.7-0.6v0.5
		c-0.6,0.8-1.2,1.2-1.8,1.2c-0.3,0-0.5-0.1-0.6-0.3C138.8,104.4,138.7,104.1,138.7,103.6z M138.7,103.1v-2.9
		c-0.8,0.3-1.4,0.6-1.6,0.7c-0.4,0.2-0.8,0.5-0.9,0.8c-0.2,0.3-0.3,0.6-0.3,0.9c0,0.4,0.1,0.7,0.4,1s0.5,0.4,0.8,0.4
		C137.5,103.9,138,103.6,138.7,103.1z" />
    <path class="st4" d="M144.1,94.6v2.5h1.8v0.6h-1.8v4.9c0,0.5,0.1,0.8,0.2,1c0.1,0.2,0.3,0.3,0.5,0.3c0.2,0,0.4-0.1,0.5-0.2
		c0.2-0.1,0.3-0.3,0.4-0.5h0.3c-0.2,0.5-0.5,1-0.8,1.2c-0.4,0.3-0.7,0.4-1.1,0.4c-0.3,0-0.5-0.1-0.7-0.2c-0.2-0.1-0.4-0.3-0.5-0.6
		s-0.2-0.7-0.2-1.2v-5.1h-1.2v-0.3c0.3-0.1,0.6-0.3,0.9-0.6c0.3-0.3,0.6-0.6,0.9-1c0.1-0.2,0.3-0.6,0.5-1.2H144.1z" />
    <path class="st4" d="M149.3,96.9v6.1c0,0.5,0,0.8,0.1,1c0.1,0.2,0.2,0.3,0.3,0.4s0.4,0.1,0.7,0.1v0.3h-3.7v-0.3
		c0.4,0,0.6,0,0.7-0.1c0.1-0.1,0.2-0.2,0.3-0.4c0.1-0.2,0.1-0.5,0.1-1v-2.9c0-0.8,0-1.4-0.1-1.6c0-0.2-0.1-0.3-0.2-0.4
		c-0.1-0.1-0.2-0.1-0.3-0.1c-0.2,0-0.3,0-0.6,0.1l-0.1-0.3l2.3-0.9H149.3z M148.6,92.9c0.2,0,0.4,0.1,0.6,0.2s0.2,0.4,0.2,0.6
		s-0.1,0.4-0.2,0.6s-0.4,0.2-0.6,0.2s-0.4-0.1-0.6-0.2s-0.2-0.4-0.2-0.6s0.1-0.4,0.2-0.6S148.4,92.9,148.6,92.9z" />
    <path class="st4" d="M155.1,96.9c1.2,0,2.1,0.4,2.8,1.3c0.6,0.7,0.9,1.6,0.9,2.6c0,0.7-0.2,1.4-0.5,2.1s-0.8,1.2-1.3,1.6
		c-0.6,0.4-1.2,0.5-1.9,0.5c-1.1,0-2.1-0.5-2.7-1.4c-0.6-0.8-0.9-1.6-0.9-2.6c0-0.7,0.2-1.4,0.5-2.1c0.3-0.7,0.8-1.2,1.4-1.5
		S154.5,96.9,155.1,96.9z M154.8,97.4c-0.3,0-0.6,0.1-0.9,0.3c-0.3,0.2-0.5,0.5-0.7,0.9s-0.3,1-0.3,1.7c0,1.1,0.2,2.1,0.7,2.9
		c0.4,0.8,1,1.2,1.7,1.2c0.5,0,1-0.2,1.3-0.7c0.3-0.4,0.5-1.2,0.5-2.3c0-1.4-0.3-2.4-0.9-3.2C156,97.7,155.4,97.4,154.8,97.4z" />
    <path class="st4" d="M162.1,98.5c0.9-1.1,1.7-1.6,2.5-1.6c0.4,0,0.8,0.1,1.1,0.3c0.3,0.2,0.5,0.5,0.7,1c0.1,0.3,0.2,0.8,0.2,1.5
		v3.2c0,0.5,0,0.8,0.1,1c0.1,0.1,0.2,0.2,0.3,0.3s0.4,0.1,0.8,0.1v0.3H164v-0.3h0.2c0.4,0,0.6-0.1,0.7-0.2c0.1-0.1,0.2-0.3,0.3-0.5
		c0-0.1,0-0.3,0-0.8v-3.1c0-0.7-0.1-1.2-0.3-1.5s-0.5-0.5-0.9-0.5c-0.7,0-1.3,0.4-2,1.1v4c0,0.5,0,0.8,0.1,1
		c0.1,0.2,0.2,0.3,0.3,0.4c0.1,0.1,0.4,0.1,0.8,0.1v0.3h-3.8v-0.3h0.2c0.4,0,0.6-0.1,0.8-0.3s0.2-0.6,0.2-1.1v-2.8
		c0-0.9,0-1.5-0.1-1.7c0-0.2-0.1-0.3-0.2-0.4c-0.1-0.1-0.2-0.1-0.3-0.1c-0.2,0-0.3,0-0.6,0.1l-0.1-0.3l2.3-0.9h0.4V98.5z" />
    <path class="st4" d="M33.3,110.5l0.1,2.6h-0.3c-0.1-0.5-0.1-0.8-0.2-1c-0.2-0.3-0.4-0.6-0.7-0.7c-0.3-0.2-0.7-0.2-1.1-0.2h-1.6v8.6
		c0,0.7,0.1,1.1,0.2,1.3c0.2,0.2,0.5,0.3,1,0.3H31v0.3h-4.8v-0.3h0.4c0.5,0,0.8-0.1,1-0.4c0.1-0.2,0.2-0.6,0.2-1.2v-8.6h-1.4
		c-0.5,0-0.9,0-1.1,0.1c-0.3,0.1-0.5,0.3-0.7,0.6s-0.3,0.7-0.4,1.2H24l0.1-2.6H33.3z" />
    <path class="st4" d="M34.4,117c0,1.1,0.3,2,0.8,2.7c0.6,0.6,1.2,1,2,1c0.5,0,0.9-0.1,1.3-0.4c0.4-0.3,0.7-0.7,0.9-1.4l0.3,0.2
		c-0.1,0.8-0.5,1.4-1,2.1c-0.6,0.6-1.3,0.9-2.1,0.9c-0.9,0-1.7-0.4-2.3-1.1c-0.7-0.7-1-1.7-1-2.9c0-1.3,0.3-2.3,1-3
		c0.7-0.7,1.5-1.1,2.5-1.1c0.9,0,1.6,0.3,2.1,0.8s0.8,1.3,0.8,2.3H34.4z M34.4,116.5H38c0-0.5-0.1-0.8-0.2-1
		c-0.1-0.3-0.3-0.6-0.6-0.7c-0.3-0.2-0.6-0.3-0.9-0.3c-0.5,0-0.9,0.2-1.2,0.5C34.7,115.4,34.5,115.9,34.4,116.5z" />
    <path class="st4" d="M47.2,118.8c-0.2,1-0.6,1.8-1.2,2.3c-0.6,0.5-1.3,0.8-2,0.8c-0.9,0-1.6-0.4-2.3-1.1c-0.6-0.7-1-1.7-1-2.9
		c0-1.2,0.4-2.2,1.1-2.9c0.7-0.7,1.6-1.1,2.6-1.1c0.7,0,1.4,0.2,1.8,0.6s0.7,0.8,0.7,1.2c0,0.2-0.1,0.4-0.2,0.5
		c-0.1,0.1-0.3,0.2-0.6,0.2c-0.3,0-0.6-0.1-0.7-0.3c-0.1-0.1-0.2-0.3-0.2-0.7c0-0.3-0.1-0.6-0.3-0.7c-0.2-0.2-0.5-0.2-0.8-0.2
		c-0.6,0-1,0.2-1.3,0.6c-0.4,0.5-0.7,1.3-0.7,2.1c0,0.9,0.2,1.7,0.7,2.4c0.4,0.7,1,1,1.8,1c0.5,0,1-0.2,1.5-0.6
		c0.3-0.3,0.6-0.7,0.9-1.4L47.2,118.8z" />
    <path class="st4" d="M50.5,109.9v5.6c0.6-0.7,1.1-1.1,1.5-1.3c0.4-0.2,0.7-0.3,1.1-0.3c0.4,0,0.8,0.1,1.1,0.4s0.5,0.6,0.7,1.1
		c0.1,0.4,0.2,1,0.2,1.9v2.7c0,0.5,0,0.8,0.1,1c0.1,0.1,0.1,0.2,0.3,0.3s0.4,0.1,0.7,0.1v0.3h-3.7v-0.3h0.2c0.4,0,0.6-0.1,0.7-0.2
		c0.1-0.1,0.2-0.3,0.3-0.5c0-0.1,0-0.3,0-0.8v-2.7c0-0.8,0-1.4-0.1-1.6c-0.1-0.3-0.2-0.5-0.4-0.6s-0.4-0.2-0.7-0.2
		c-0.3,0-0.6,0.1-0.8,0.2s-0.6,0.4-1.1,0.9v4c0,0.5,0,0.8,0.1,1c0.1,0.1,0.2,0.2,0.3,0.3c0.2,0.1,0.4,0.1,0.8,0.1v0.3H48v-0.3
		c0.3,0,0.6-0.1,0.8-0.2c0.1-0.1,0.2-0.2,0.3-0.3c0.1-0.2,0.1-0.5,0.1-0.9v-6.9c0-0.9,0-1.4-0.1-1.6c0-0.2-0.1-0.3-0.2-0.4
		c-0.1-0.1-0.2-0.1-0.3-0.1c-0.1,0-0.3,0-0.6,0.1l-0.1-0.3l2.3-0.9H50.5z" />
    <path class="st4" d="M59,115.5c0.9-1.1,1.7-1.6,2.5-1.6c0.4,0,0.8,0.1,1.1,0.3c0.3,0.2,0.5,0.5,0.7,1c0.1,0.3,0.2,0.8,0.2,1.5v3.2
		c0,0.5,0,0.8,0.1,1c0.1,0.1,0.2,0.2,0.3,0.3c0.1,0.1,0.4,0.1,0.8,0.1v0.3h-3.8v-0.3h0.2c0.4,0,0.6-0.1,0.7-0.2
		c0.1-0.1,0.2-0.3,0.3-0.5c0-0.1,0-0.3,0-0.8v-3.1c0-0.7-0.1-1.2-0.3-1.5c-0.2-0.3-0.5-0.5-0.9-0.5c-0.7,0-1.3,0.4-2,1.1v4
		c0,0.5,0,0.8,0.1,1c0.1,0.2,0.2,0.3,0.3,0.4c0.1,0.1,0.4,0.1,0.8,0.1v0.3h-3.8v-0.3h0.2c0.4,0,0.6-0.1,0.8-0.3
		c0.1-0.2,0.2-0.6,0.2-1.1v-2.8c0-0.9,0-1.5-0.1-1.7c0-0.2-0.1-0.3-0.2-0.4c-0.1-0.1-0.2-0.1-0.3-0.1c-0.2,0-0.3,0-0.6,0.1l-0.1-0.3
		l2.3-0.9H59V115.5z" />
    <path class="st4" d="M69,113.9c1.2,0,2.1,0.4,2.8,1.3c0.6,0.7,0.9,1.6,0.9,2.6c0,0.7-0.2,1.4-0.5,2.1s-0.8,1.2-1.3,1.6
		c-0.6,0.4-1.2,0.5-1.9,0.5c-1.1,0-2.1-0.5-2.7-1.4c-0.6-0.8-0.9-1.6-0.9-2.6c0-0.7,0.2-1.4,0.5-2.1c0.3-0.7,0.8-1.2,1.4-1.5
		S68.3,113.9,69,113.9z M68.7,114.4c-0.3,0-0.6,0.1-0.9,0.3c-0.3,0.2-0.5,0.5-0.7,0.9s-0.3,1-0.3,1.7c0,1.1,0.2,2.1,0.7,2.9
		c0.4,0.8,1,1.2,1.7,1.2c0.5,0,1-0.2,1.3-0.7c0.3-0.4,0.5-1.2,0.5-2.3c0-1.4-0.3-2.4-0.9-3.2C69.8,114.7,69.3,114.4,68.7,114.4z" />
    <path class="st4" d="M76.4,109.9V120c0,0.5,0,0.8,0.1,0.9c0.1,0.2,0.2,0.3,0.3,0.4s0.4,0.1,0.8,0.1v0.3h-3.7v-0.3
		c0.3,0,0.6,0,0.7-0.1c0.1-0.1,0.2-0.2,0.3-0.4s0.1-0.5,0.1-1v-6.9c0-0.9,0-1.4-0.1-1.6s-0.1-0.3-0.2-0.4c-0.1-0.1-0.2-0.1-0.3-0.1
		c-0.1,0-0.3,0-0.5,0.1l-0.1-0.3l2.3-0.9H76.4z" />
    <path class="st4" d="M82.2,113.9c1.2,0,2.1,0.4,2.8,1.3c0.6,0.7,0.9,1.6,0.9,2.6c0,0.7-0.2,1.4-0.5,2.1s-0.8,1.2-1.3,1.6
		c-0.6,0.4-1.2,0.5-1.9,0.5c-1.1,0-2.1-0.5-2.7-1.4c-0.6-0.8-0.9-1.6-0.9-2.6c0-0.7,0.2-1.4,0.5-2.1c0.3-0.7,0.8-1.2,1.4-1.5
		S81.6,113.9,82.2,113.9z M81.9,114.4c-0.3,0-0.6,0.1-0.9,0.3c-0.3,0.2-0.5,0.5-0.7,0.9s-0.3,1-0.3,1.7c0,1.1,0.2,2.1,0.7,2.9
		c0.4,0.8,1,1.2,1.7,1.2c0.5,0,1-0.2,1.3-0.7c0.3-0.4,0.5-1.2,0.5-2.3c0-1.4-0.3-2.4-0.9-3.2C83.1,114.7,82.6,114.4,81.9,114.4z" />
    <path class="st4" d="M89,119c-0.5-0.2-0.8-0.5-1.1-1c-0.2-0.4-0.4-0.9-0.4-1.3c0-0.8,0.3-1.4,0.9-1.9c0.6-0.5,1.3-0.8,2.2-0.8
		c0.7,0,1.4,0.2,1.9,0.5h1.6c0.2,0,0.4,0,0.4,0s0.1,0,0.1,0.1c0,0,0,0.1,0,0.3c0,0.1,0,0.2,0,0.3c0,0,0,0-0.1,0.1c0,0-0.2,0-0.4,0
		h-1c0.3,0.4,0.5,0.9,0.5,1.5c0,0.7-0.3,1.3-0.8,1.8s-1.3,0.8-2.2,0.8c-0.4,0-0.8-0.1-1.2-0.2c-0.2,0.2-0.4,0.4-0.5,0.6
		c-0.1,0.2-0.1,0.3-0.1,0.4c0,0.1,0,0.2,0.1,0.3c0.1,0.1,0.3,0.2,0.5,0.2c0.2,0,0.5,0,1.2,0.1c1.1,0,1.9,0.1,2.2,0.1
		c0.5,0.1,0.9,0.3,1.2,0.6c0.3,0.3,0.5,0.7,0.5,1.1c0,0.6-0.3,1.2-0.9,1.8c-0.9,0.8-2,1.2-3.4,1.2c-1.1,0-2-0.2-2.7-0.7
		c-0.4-0.3-0.6-0.6-0.6-0.9c0-0.1,0-0.3,0.1-0.4c0.1-0.2,0.3-0.5,0.6-0.9c0,0,0.3-0.3,0.8-0.9c-0.3-0.2-0.5-0.3-0.6-0.5
		c-0.1-0.1-0.2-0.3-0.2-0.5c0-0.2,0.1-0.4,0.2-0.7C88.1,119.8,88.4,119.4,89,119z M88.9,121.7c-0.3,0.3-0.5,0.5-0.6,0.8
		c-0.1,0.2-0.2,0.5-0.2,0.7c0,0.3,0.2,0.5,0.5,0.7c0.6,0.3,1.4,0.5,2.4,0.5c1,0,1.7-0.2,2.2-0.5c0.5-0.4,0.7-0.7,0.7-1.1
		c0-0.3-0.1-0.5-0.4-0.6c-0.3-0.1-0.9-0.2-1.7-0.2C90.6,121.9,89.6,121.8,88.9,121.7z M90.5,114.3c-0.4,0-0.8,0.2-1,0.5
		s-0.4,0.8-0.4,1.5c0,0.9,0.2,1.6,0.6,2c0.3,0.4,0.7,0.5,1.1,0.5c0.4,0,0.8-0.2,1-0.5c0.3-0.3,0.4-0.8,0.4-1.5
		c0-0.9-0.2-1.6-0.6-2.1C91.3,114.5,90.9,114.3,90.5,114.3z" />
    <path class="st4" d="M95.1,114.1h3.5v0.3h-0.2c-0.3,0-0.4,0.1-0.6,0.2c-0.1,0.1-0.2,0.2-0.2,0.4c0,0.2,0.1,0.5,0.3,0.9l1.9,3.8
		l1.7-4.2c0.1-0.2,0.1-0.5,0.1-0.7c0-0.1,0-0.2-0.1-0.2c0-0.1-0.1-0.1-0.2-0.1s-0.3-0.1-0.5-0.1v-0.3h2.5v0.3
		c-0.2,0-0.4,0.1-0.5,0.1s-0.2,0.2-0.4,0.4c-0.1,0.1-0.1,0.3-0.3,0.6l-3.1,7.6c-0.3,0.7-0.7,1.3-1.2,1.7s-1,0.6-1.4,0.6
		c-0.3,0-0.6-0.1-0.8-0.3s-0.3-0.4-0.3-0.6c0-0.2,0.1-0.4,0.2-0.6c0.2-0.1,0.4-0.2,0.6-0.2c0.2,0,0.4,0.1,0.7,0.2
		c0.2,0.1,0.4,0.1,0.4,0.1c0.2,0,0.3-0.1,0.5-0.3c0.2-0.2,0.4-0.5,0.6-1l0.5-1.3l-2.7-5.7c-0.1-0.2-0.2-0.4-0.4-0.6
		c-0.1-0.2-0.3-0.3-0.3-0.4c-0.1-0.1-0.3-0.2-0.6-0.2V114.1z" />
    <path class="st4" d="M115.5,110.2v3.9h-0.3c-0.1-0.7-0.3-1.3-0.5-1.8c-0.3-0.4-0.6-0.8-1.1-1.1c-0.5-0.3-1-0.4-1.5-0.4
		c-0.6,0-1.1,0.2-1.4,0.5c-0.4,0.4-0.6,0.8-0.6,1.2c0,0.3,0.1,0.7,0.4,0.9c0.3,0.4,1.2,1,2.4,1.7c1.1,0.6,1.8,1,2.2,1.3
		s0.7,0.7,0.9,1.1c0.2,0.4,0.3,0.8,0.3,1.3c0,0.9-0.3,1.6-1,2.2s-1.5,0.9-2.6,0.9c-0.3,0-0.6,0-0.9-0.1c-0.2,0-0.5-0.1-1.1-0.3
		c-0.5-0.2-0.9-0.3-1-0.3c-0.1,0-0.2,0-0.3,0.1c-0.1,0.1-0.1,0.3-0.2,0.5h-0.3v-3.9h0.3c0.1,0.8,0.3,1.4,0.6,1.8s0.6,0.7,1.1,1
		s1,0.4,1.6,0.4c0.7,0,1.2-0.2,1.6-0.5s0.6-0.8,0.6-1.3c0-0.3-0.1-0.6-0.2-0.8s-0.4-0.5-0.7-0.8c-0.2-0.2-0.8-0.5-1.8-1.1
		c-1-0.5-1.6-1-2.1-1.3c-0.4-0.3-0.7-0.7-0.9-1.1s-0.3-0.8-0.3-1.3c0-0.8,0.3-1.5,0.9-2.1s1.4-0.9,2.4-0.9c0.6,0,1.2,0.1,1.9,0.4
		c0.3,0.1,0.5,0.2,0.7,0.2c0.1,0,0.3,0,0.4-0.1c0.1-0.1,0.2-0.3,0.2-0.5H115.5z" />
    <path class="st4" d="M119,117c0,1.1,0.3,2,0.8,2.7c0.6,0.6,1.2,1,2,1c0.5,0,0.9-0.1,1.3-0.4c0.4-0.3,0.7-0.7,0.9-1.4l0.3,0.2
		c-0.1,0.8-0.5,1.4-1,2.1c-0.6,0.6-1.3,0.9-2.1,0.9c-0.9,0-1.7-0.4-2.3-1.1s-1-1.7-1-2.9c0-1.3,0.3-2.3,1-3s1.5-1.1,2.5-1.1
		c0.9,0,1.6,0.3,2.1,0.8s0.8,1.3,0.8,2.3H119z M119,116.5h3.5c0-0.5-0.1-0.8-0.2-1c-0.1-0.3-0.3-0.6-0.6-0.7
		c-0.3-0.2-0.6-0.3-0.9-0.3c-0.5,0-0.9,0.2-1.2,0.5C119.2,115.4,119,115.9,119,116.5z" />
    <path class="st4" d="M127.5,113.9v1.7c0.6-1.1,1.3-1.7,2-1.7c0.3,0,0.6,0.1,0.8,0.3s0.3,0.4,0.3,0.6c0,0.2-0.1,0.4-0.2,0.5
		c-0.1,0.1-0.3,0.2-0.5,0.2c-0.2,0-0.4-0.1-0.7-0.3c-0.2-0.2-0.4-0.3-0.5-0.3c-0.1,0-0.2,0.1-0.3,0.2c-0.2,0.2-0.5,0.6-0.8,1.1v3.6
		c0,0.4,0.1,0.7,0.2,1c0.1,0.2,0.2,0.3,0.4,0.4c0.2,0.1,0.4,0.1,0.8,0.1v0.3h-3.9v-0.3c0.4,0,0.7-0.1,0.9-0.2
		c0.1-0.1,0.2-0.2,0.3-0.4c0-0.1,0-0.4,0-0.8v-2.9c0-0.9,0-1.4-0.1-1.6s-0.1-0.3-0.2-0.4s-0.2-0.1-0.4-0.1c-0.2,0-0.4,0-0.6,0.1
		l-0.1-0.3l2.3-0.9H127.5z" />
    <path class="st4" d="M130.5,114.1h3.6v0.3h-0.2c-0.2,0-0.4,0.1-0.5,0.2s-0.2,0.2-0.2,0.4c0,0.2,0.1,0.4,0.2,0.7l1.8,4.2l1.8-4.4
		c0.1-0.3,0.2-0.5,0.2-0.7c0-0.1,0-0.1-0.1-0.2c-0.1-0.1-0.1-0.1-0.2-0.2c-0.1,0-0.3,0-0.6,0v-0.3h2.5v0.3c-0.3,0-0.5,0.1-0.6,0.2
		c-0.2,0.2-0.4,0.4-0.5,0.8l-2.7,6.5h-0.3l-2.7-6.4c-0.1-0.3-0.2-0.5-0.3-0.6c-0.1-0.1-0.3-0.2-0.4-0.3c-0.1,0-0.3-0.1-0.6-0.1
		V114.1z" />
    <path class="st4" d="M142,113.9v6.1c0,0.5,0,0.8,0.1,1c0.1,0.2,0.2,0.3,0.3,0.4s0.4,0.1,0.7,0.1v0.3h-3.7v-0.3c0.4,0,0.6,0,0.7-0.1
		c0.1-0.1,0.2-0.2,0.3-0.4c0.1-0.2,0.1-0.5,0.1-1v-2.9c0-0.8,0-1.4-0.1-1.6c0-0.2-0.1-0.3-0.2-0.4c-0.1-0.1-0.2-0.1-0.3-0.1
		c-0.2,0-0.3,0-0.6,0.1l-0.1-0.3l2.3-0.9H142z M141.3,109.9c0.2,0,0.4,0.1,0.6,0.2s0.2,0.4,0.2,0.6s-0.1,0.4-0.2,0.6
		s-0.4,0.2-0.6,0.2s-0.4-0.1-0.6-0.2s-0.2-0.4-0.2-0.6s0.1-0.4,0.2-0.6S141.1,109.9,141.3,109.9z" />
    <path class="st4" d="M150.6,118.8c-0.2,1-0.6,1.8-1.2,2.3c-0.6,0.5-1.3,0.8-2,0.8c-0.9,0-1.6-0.4-2.3-1.1c-0.6-0.7-1-1.7-1-2.9
		c0-1.2,0.4-2.2,1.1-2.9s1.6-1.1,2.6-1.1c0.7,0,1.4,0.2,1.8,0.6c0.5,0.4,0.7,0.8,0.7,1.2c0,0.2-0.1,0.4-0.2,0.5s-0.3,0.2-0.6,0.2
		c-0.3,0-0.6-0.1-0.7-0.3c-0.1-0.1-0.2-0.3-0.2-0.7s-0.1-0.6-0.3-0.7c-0.2-0.2-0.5-0.2-0.8-0.2c-0.6,0-1,0.2-1.3,0.6
		c-0.4,0.5-0.7,1.3-0.7,2.1c0,0.9,0.2,1.7,0.7,2.4s1,1,1.8,1c0.5,0,1-0.2,1.5-0.6c0.3-0.3,0.6-0.7,0.9-1.4L150.6,118.8z" />
    <path class="st4" d="M152.9,117c0,1.1,0.3,2,0.8,2.7c0.6,0.6,1.2,1,2,1c0.5,0,0.9-0.1,1.3-0.4c0.4-0.3,0.7-0.7,0.9-1.4l0.3,0.2
		c-0.1,0.8-0.5,1.4-1,2.1c-0.6,0.6-1.3,0.9-2.1,0.9c-0.9,0-1.7-0.4-2.3-1.1s-1-1.7-1-2.9c0-1.3,0.3-2.3,1-3s1.5-1.1,2.5-1.1
		c0.9,0,1.6,0.3,2.1,0.8s0.8,1.3,0.8,2.3H152.9z M152.9,116.5h3.5c0-0.5-0.1-0.8-0.2-1c-0.1-0.3-0.3-0.6-0.6-0.7
		c-0.3-0.2-0.6-0.3-0.9-0.3c-0.5,0-0.9,0.2-1.2,0.5C153.2,115.4,153,115.9,152.9,116.5z" />
    <path class="st4" d="M164.1,113.9v2.6h-0.3c-0.2-0.8-0.5-1.4-0.8-1.7c-0.3-0.3-0.7-0.4-1.3-0.4c-0.4,0-0.7,0.1-0.9,0.3
		c-0.2,0.2-0.4,0.4-0.4,0.7c0,0.3,0.1,0.6,0.3,0.8c0.2,0.2,0.5,0.5,1,0.7l1.2,0.6c1.1,0.5,1.7,1.3,1.7,2.2c0,0.7-0.3,1.2-0.8,1.7
		c-0.5,0.4-1.1,0.6-1.8,0.6c-0.5,0-1-0.1-1.6-0.2c-0.2-0.1-0.3-0.1-0.4-0.1c-0.1,0-0.2,0.1-0.3,0.2h-0.3v-2.7h0.3
		c0.2,0.8,0.5,1.4,0.9,1.8s0.9,0.6,1.5,0.6c0.4,0,0.7-0.1,0.9-0.3c0.2-0.2,0.4-0.5,0.4-0.8c0-0.4-0.1-0.7-0.4-1
		c-0.3-0.3-0.8-0.6-1.6-1c-0.8-0.4-1.3-0.8-1.6-1.1c-0.2-0.3-0.4-0.7-0.4-1.2c0-0.6,0.2-1.1,0.6-1.6c0.4-0.4,1-0.6,1.7-0.6
		c0.3,0,0.7,0.1,1.1,0.2c0.3,0.1,0.5,0.1,0.6,0.1c0.1,0,0.2,0,0.2-0.1s0.1-0.1,0.2-0.3H164.1z" />
  </g>
</svg>